Coordinates
version=1
nRows=14
nColumns=42
inDegrees=yes

Units are S.I. units (second, meters, Newtons, ...)
If the header above contains a line with 'inDegrees', this indicates whether rotational values are in degrees (yes) or radians (no).

endheader
time	pelvis_tilt	pelvis_list	pelvis_rotation	pelvis_tx	pelvis_ty	pelvis_tz	hip_flexion_r	hip_adduction_r	hip_rotation_r	knee_angle_r	knee_angle_r_beta	ankle_angle_r	subtalar_angle_r	mtp_angle_r	hip_flexion_l	hip_adduction_l	hip_rotation_l	knee_angle_l	knee_angle_l_beta	ankle_angle_l	subtalar_angle_l	mtp_angle_l	lumbar_extension	lumbar_bending	lumbar_rotation	sh_tx_r	sh_ty_r	sh_tz_r	sh_plane_elev_r	sh_elev_r	sh_axial_rot_r	elbow_flex_r	pro_sup_r	sh_tx_l	sh_ty_l	sh_tz_l	sh_plane_elev_l	sh_elev_l	sh_axial_rot_l	elbow_flex_l	pro_sup_l
      0.00000000	     -4.35972242	     -1.74093476	      1.95056182	      0.30294081	      0.95232947	     -0.03768993	      4.53857013	     -2.64653683	     -0.04225051	      6.89686309	      0.12037297	     -0.56328479	    -14.63535028	     -5.31193568	      5.63969209	     -3.35311586	     -5.38683198	      7.14233409	      0.12465725	      8.98356526	    -10.82940142	     -5.31193568	      0.71820674	      0.05334535	     -7.88363307	      0.01486691	     -0.01607402	     -0.00545766	     18.92823186	      5.89373568	     -0.55904627	     25.17552528	     76.36235219	      0.01137100	     -0.01450938	     -0.00513233	     20.94716661	     10.32579753	     -8.32676417	     34.56347772	     70.75273793
      0.01666670	     -5.97879097	     -1.87097645	      2.40830951	      0.30541289	      0.95126588	     -0.03926156	      5.64737942	     -2.59177118	      0.33505046	      6.19669165	      0.10815267	      2.33083453	    -11.18900930	     -6.37068205	      7.72209001	     -3.12633690	     -6.41186853	      6.68368168	      0.11665225	      8.97018211	     -9.04792536	     -6.37068205	      3.95402730	      0.30203751	     -9.47747985	      0.01718138	     -0.01756403	     -0.00595561	     12.61408903	      4.52764137	      0.63091477	     24.27479650	     79.18840721	      0.01399747	     -0.01670951	     -0.00507027	      8.30940951	      7.50281305	     -5.75916233	     36.02846188	     73.51450056
      0.03333330	     -6.57392132	     -1.21867050	      2.51284331	      0.30571116	      0.94562034	     -0.03889767	      5.82428175	     -3.53247898	      0.01788834	      5.50521744	      0.09608417	      2.99256043	    -10.83906665	     -6.42882552	      8.32565779	     -2.45922694	     -7.46775608	      6.54183772	      0.11417661	      8.94893784	     -8.03061353	     -6.42882552	      4.69104312	     -0.67215368	    -10.11188903	      0.01718680	     -0.01758643	     -0.00593292	     12.82673450	      4.09481013	     -0.92720411	     24.30111398	     78.64247384	      0.01210131	     -0.01674122	     -0.00491260	      8.89934112	      8.17476580	     -7.35319098	     36.70755354	     72.92214778
      0.05000000	     -6.42113254	     -0.74470077	      2.77630027	      0.30584828	      0.94946617	     -0.03931617	      5.36484358	     -4.11691420	     -0.13223645	      5.02902974	      0.08777313	      3.88276022	    -10.07170167	     -6.45561564	      7.63084509	     -1.87067934	     -7.26887180	      5.65238533	      0.09865273	      8.46426715	     -8.28309587	     -6.45561564	      4.48430401	     -1.32893809	    -10.62646435	      0.01779483	     -0.01793497	     -0.00595781	     13.67367929	      3.91877101	     -1.40823971	     24.20594465	     77.84608983	      0.01052786	     -0.01706454	     -0.00490917	     10.57757776	      8.89262075	     -8.53143928	     36.63217077	     72.08974010
      0.06666670	     -5.89748151	     -0.50947795	      3.03834730	      0.30565301	      0.95395531	     -0.03903093	      4.39247345	     -4.31290444	     -0.29694670	      4.35650215	      0.07603531	      4.00350769	     -9.93259962	     -6.53130786	      6.70875559	     -1.58995132	     -7.06677876	      4.98134462	      0.08694086	      8.22010443	     -8.08584396	     -6.53130786	      3.80233370	     -1.57528945	    -10.85009706	      0.01907098	     -0.01806299	     -0.00592912	     15.55055730	      4.03819565	     -0.85521791	     24.15657052	     77.25398229	      0.01117184	     -0.01723474	     -0.00489594	     12.36290563	      9.59261243	     -8.51171068	     36.32901980	     71.48647578
      0.08333330	     -5.50240242	     -0.36570546	      3.31893132	      0.30533533	      0.95402524	     -0.03918279	      3.68861369	     -4.38894893	     -0.58376935	      3.89671309	      0.06801047	      4.11440269	     -9.75381977	     -6.73504031	      6.06305452	     -1.44543917	     -6.80348143	      4.53665068	      0.07917949	      7.97115023	     -8.18664503	     -6.73504031	      3.19103609	     -1.75744791	    -11.32732602	      0.02126078	     -0.01816767	     -0.00584204	     14.88478055	      3.74790092	     -0.24285467	     24.76445144	     75.51689900	      0.01202202	     -0.01745107	     -0.00476427	     12.83577466	      9.77885853	     -9.45188253	     36.84527410	     69.04421750
      0.10000000	     -5.15878560	     -0.24694461	      3.49472752	      0.30525221	      0.95463267	     -0.03889991	      3.03675127	     -4.46611540	     -0.88826330	      3.41466780	      0.05959720	      4.20527885	     -9.48991382	     -6.73507550	      5.55425439	     -1.33747574	     -6.57711342	      4.23190058	      0.07386060	      7.77788496	     -8.30909359	     -6.73507550	      2.82992273	     -1.91461756	    -11.74493583	      0.02386714	     -0.01820012	     -0.00574240	     16.46900194	      3.84028484	     -0.56122192	     24.79111942	     75.28880660	      0.01418923	     -0.01755099	     -0.00489208	     14.36789789	     10.24172546	    -10.32308602	     36.77740384	     68.56759678
      0.11666670	     -4.83842123	     -0.17313986	      3.71674535	      0.30502323	      0.95439018	     -0.03885365	      2.49836591	     -4.52164744	     -1.04109527	      3.15541846	      0.05507244	      4.06274116	     -9.49053863	     -6.78148465	      5.18609775	     -1.26222957	     -6.14324693	      4.11384327	      0.07180011	      7.58649404	     -8.53339418	     -6.78148465	      2.50217790	     -2.04986337	    -12.14794098	      0.02614208	     -0.01819645	     -0.00571195	     18.00461348	      3.93745286	     -0.67933540	     24.82682469	     74.52769179	      0.01626208	     -0.01754942	     -0.00494870	     15.91487784	     10.63798254	    -11.41596410	     36.70734026	     67.60233033
      0.13333330	     -4.87130023	     -0.17330950	      3.87953492	      0.30454525	      0.95429186	     -0.03852367	      2.60797462	     -4.52114674	     -1.30818320	      3.29518748	      0.05751187	      4.01554149	     -9.53786130	     -6.80526893	      5.42557659	     -1.28802794	     -5.89921504	      4.39193601	      0.07665374	      7.66157367	     -8.55868217	     -6.80526893	      2.23329927	     -2.04624271	    -12.23567355	      0.02450774	     -0.01644006	     -0.00553595	     20.08155441	      4.60780826	      0.23255862	     25.66230155	     74.11309675	      0.01675010	     -0.01527436	     -0.00510760	     17.48479153	     11.25545790	    -11.17079858	     36.46042872	     67.14966404
      0.15000000	     -4.25838440	     -0.15711406	      4.07274570	      0.30455664	      0.95487253	     -0.03849409	      1.51535392	     -4.44283512	     -1.44686909	      2.54127697	      0.04435365	      3.69579375	     -9.54328641	     -6.85253160	      4.54344996	     -1.31396788	     -5.52509499	      3.93895987	      0.06874782	      7.29595537	     -8.97844977	     -6.85253160	      1.86578041	     -2.12085193	    -12.70780253	      0.02909210	     -0.01816238	     -0.00574451	     20.28670986	      4.16628937	     -0.94611568	     25.09425611	     73.61824943	      0.01884189	     -0.01742235	     -0.00506711	     18.44909520	     11.42226403	    -13.11684993	     36.56193667	     66.10514012
      0.16666670	     -3.99824639	     -0.17089123	      4.15492228	      0.30444355	      0.95546730	     -0.03828402	      1.10853653	     -4.37827063	     -1.76477560	      2.31493788	      0.04040329	      3.68847979	     -9.27756600	     -6.87879406	      4.23999007	     -1.39833116	     -5.45619733	      3.88944885	      0.06788369	      7.20801409	     -9.06931663	     -6.87879406	      1.50539562	     -2.07320164	    -12.75103467	      0.02894056	     -0.01812888	     -0.00574753	     22.43844529	      4.48951294	     -2.13583984	     25.04392326	     73.03653341	      0.01890279	     -0.01729959	     -0.00519579	     21.28335097	     12.17894415	    -14.93771196	     36.29710366	     64.88954701
      0.18333330	     -3.74749974	     -0.15286329	      4.21030293	      0.30416699	      0.95534201	     -0.03813013	      0.75935513	     -4.36012082	     -1.93356719	      2.09831561	      0.03662252	      3.43427950	     -9.43004008	     -7.23602735	      3.98496982	     -1.44737227	     -5.33510423	      3.89577407	      0.06799408	      6.99901069	     -9.41594948	     -7.23602735	      0.97611198	     -2.04564251	    -11.63240784	      0.02652200	     -0.01808555	     -0.00574376	     19.92135922	      4.47665536	     -1.15981531	     25.44888290	     74.41104795	      0.01602287	     -0.01719090	     -0.00577194	     33.32683258	     14.93408695	    -20.28310144	     33.63687651	     56.53462518
      0.20000000	     -3.55316893	     -0.16401228	      4.34413999	      0.30425879	      0.95596617	     -0.03785805	      0.41781298	     -4.30241194	     -2.10683190	      1.92659048	      0.03362535	      3.48895352	     -9.16900557	     -7.25668791	      3.73789812	     -1.54266523	     -5.10350489	      3.86885756	      0.06752430	      6.93533647	     -9.48120838	     -7.25668791	      0.64634394	     -2.01345198	    -11.77782006	      0.02635354	     -0.01806544	     -0.00576332	     21.73051353	      4.72795231	     -2.28694901	     25.29529882	     73.64650973	      0.01550101	     -0.01709474	     -0.00591179	     35.74175789	     16.13937383	    -21.63823324	     33.47593296	     55.94898020
      0.21666670	     -3.55070042	     -0.19973495	      4.43223156	      0.30428073	      0.95824237	     -0.03817797	      0.29870217	     -4.25589423	     -2.10894899	      1.75880622	      0.03069696	      3.38504790	     -9.31072405	     -7.25638307	      3.68978710	     -1.63127955	     -4.95525377	      3.80419596	      0.06639574	      6.94436219	     -9.39544332	     -7.25638307	      0.74569097	     -1.98836326	    -12.11961642	      0.02774539	     -0.01809016	     -0.00581627	     22.98258603	      4.91060141	     -2.15467512	     24.88060847	     73.71666828	      0.01575808	     -0.01713082	     -0.00601377	     37.08144058	     16.95006474	    -22.02626241	     33.10535754	     55.60658555
